<?xml version="1.0" encoding="utf-8"?>
<!-- Generator: Adobe Illustrator 16.0.3, SVG Export Plug-In . SVG Version: 6.00 Build 0)  -->
<!DOCTYPE svg PUBLIC "-//W3C//DTD SVG 1.1//EN" "http://www.w3.org/Graphics/SVG/1.1/DTD/svg11.dtd">
<svg version="1.1" id="Vrstva_1" xmlns="http://www.w3.org/2000/svg" xmlns:xlink="http://www.w3.org/1999/xlink" x="0px" y="0px"
	 width="690px" height="136px" viewBox="155 432 690 136" enable-background="new 155 432 690 136" xml:space="preserve">
<g>
	<path fill="#FFFFFF" d="M208.4,489.8V505h-31.2v7.4h28.3v15.2h-28.3v7.5h31.9v15.2h-52v-60.5H208.4z"/>
	<path fill="#FFFFFF" d="M298.1,520.2v30.1h-19.4v-24.5c0-4-2.2-6.5-5.4-6.5c-3.6,0-6,3-6,7.6v23.4h-19.4v-24.5c0-4-2.2-6.5-5.4-6.5
		c-3.6,0-6,3-6,7.6v23.4h-19.4v-47.2h19.4v6.6c3.2-4.7,7.9-7.5,14.1-7.5c7.2,0,12.8,3.8,15.3,10.1c3-6.4,8.4-10.1,15.5-10.1
		C291.1,502.3,298.1,509.3,298.1,520.2z"/>
	<path fill="#FFFFFF" d="M351,519.8v30.6h-19.1v-5.1c-2.8,3.8-7.3,6-13.3,6c-10,0-15.8-5.9-15.8-14.8c0-9.3,6.3-14.2,18.3-14.4h10.8
		c-0.1-3.3-2.6-5.2-7.3-5.2c-3.5,0-9,1-14.3,3l-4.3-13c8-2.9,16.3-4.6,23.3-4.6C342.9,502.3,351,508.6,351,519.8z M331.9,535.2v-4.3
		h-6.7c-2.7,0-4.1,1.3-4.1,3.8c0,2.6,1.6,4.1,4.3,4.1C327.8,538.9,330.4,537.6,331.9,535.2z"/>
	<path fill="#FFFFFF" d="M378.6,503.1v47.2h-19.4v-47.2H378.6z M376.8,489.9c0,4.6-3.2,7.9-7.9,7.9c-4.7,0-7.9-3.3-7.9-7.9
		c0-4.7,3.2-7.9,7.9-7.9C373.6,482,376.8,485.3,376.8,489.9z"/>
	<path fill="#FFFFFF" d="M408,486.3v64.1h-19.4v-64.1H408z"/>
	<path fill="#FFFFFF" d="M437.5,489.8v43.9h25.2v16.7h-45.2v-60.5H437.5z"/>
	<path fill="#FFFFFF" d="M487.7,503.1v47.2h-19.4v-47.2H487.7z M485.9,489.9c0,4.6-3.2,7.9-7.9,7.9c-4.7,0-7.9-3.3-7.9-7.9
		c0-4.7,3.2-7.9,7.9-7.9C482.7,482,485.9,485.3,485.9,489.9z"/>
	<path fill="#FFFFFF" d="M516.1,515c-1.6,0-2.7,0.6-2.7,1.6c0,4.4,24.5,2.7,24.5,18.6c0,9.8-8.4,16.1-21.4,16.1
		c-8.7,0-16.5-2.2-23.1-6.7l5.9-12.1c6.3,3.9,12.2,5.9,17.4,5.9c1.8,0,2.9-0.5,2.9-1.4c0-4.1-24-2.3-24-18.3
		c0-9.9,8.2-16.3,20.8-16.3c7.5,0,14.8,2,21.9,6l-6.4,12C525.1,516.8,519.8,515,516.1,515z"/>
	<path fill="#FFFFFF" d="M578.6,548.3c-3.1,1.8-8.5,2.9-13.5,2.9c-10.8,0.1-17.8-6.2-17.8-16.1V518h-6.5v-12.3h6.5v-13.2h19.3v13.2
		h11V518h-11v14.2c0,2.5,1.5,4.1,3.8,4c1.1,0,3-0.5,4.8-1.2L578.6,548.3z"/>
	<path fill="#16BAC4" d="M723.3,502.3v17.5c-8.7-1.3-14.4,1.8-14.4,8v22.5h-19.4v-47.2h19.4v6.9
		C712.1,505.1,717.1,502.3,723.3,502.3z"/>
	<path fill="#16BAC4" d="M748.3,503.1v47.2h-19.4v-47.2H748.3z M746.5,489.9c0,4.6-3.2,7.9-7.9,7.9s-7.9-3.3-7.9-7.9
		c0-4.7,3.2-7.9,7.9-7.9S746.5,485.3,746.5,489.9z"/>
	<path fill="#16BAC4" d="M780.6,504.4v1.3h9.2V518h-9.2v32.4h-19.3V518h-6.5v-12.3h6.5v-4.2c0-9.8,7.7-16.1,19.6-16.1
		c5.4,0,11.5,1.3,15.5,3.4l-6.5,13.3c-1.5-1-3.4-1.6-4.7-1.6C782.3,500.4,780.6,501.9,780.6,504.4z"/>
	<path fill="#16BAC4" d="M807,568c-6.2,0-11.2-1.7-16.3-5.5l8.1-12.8c2.1,1.9,4,2.8,6.3,2.8c2.2,0,3.7-0.8,4.7-2.4l0.7-1.1
		l-19.6-45.8h19.9l9.3,26.9l7.7-26.9h19.3l-19.4,50.5C823.8,563.5,817.1,568,807,568z"/>
	<path fill="#16BAC4" d="M658.2,502.4c-1.8,0-3.6,0.1-5.2,0.4L633.6,533c2.3,11.1,11.3,18,25.1,18c9.2,0,16.4-3.1,21.4-8.6
		l-10.1-9.9c-2.9,2.8-6.3,4.2-9.6,4.2c-3.8,0-6.6-1.9-7.9-5.6h30.7C684.3,513.7,674.7,502.4,658.2,502.4z M663.9,522.1h-11.7
		c0.8-4,2.8-6.7,6.2-6.7S664.1,518.2,663.9,522.1z"/>
	<path id="Shape_13_" fill="#16BAC4" d="M587,495.2c-7.7-7.5-10.3-5.7-5.9,4.1l19.7,43.1c4.4,9.8,13,10.4,18.8,1.5l69.6-104.7
		c5.9-8.9,5-9.6-2.1-1.5l-60.5,69c-7.1,8.1-19.1,8.5-26.8,1L587,495.2z"/>
</g>
</svg>
